<svg id="f81e8241-4feb-4720-93d5-7676d46fd78a" data-name="Layer 1" xmlns="http://www.w3.org/2000/svg" viewBox="0 0 190 60.74"><path d="M35.67,45A7.42,7.42,0,0,1,31.09,51a11.35,11.35,0,0,1-4.9.84,15.84,15.84,0,0,1-6.69-1.73,17.22,17.22,0,0,1-2.68-1.84c-.21-.18-.24-.29-.09-.5l.52-.77c.46-.67.51-.75.56-.83a.38.38,0,0,1,.61-.06l0,0,.12.1.17.13a13,13,0,0,0,7.44,2.85c3.64-.05,6.26-1.69,6.73-4.21.51-2.76-1.66-5.15-5.91-6.49a49.9,49.9,0,0,1-5.31-2.12q-4.37-2.56-4.07-6.71C17.93,25.88,21.49,23,26,23a15.24,15.24,0,0,1,5.93,1.22,14.92,14.92,0,0,1,2.32,1.27.42.42,0,0,1,.15.61c-.07.13-.2.33-.47.76h0l-.45.72c-.14.21-.31.23-.56.07A12.52,12.52,0,0,0,26,25.53c-3.13.06-5.47,1.92-5.62,4.46,0,2.29,1.67,4,5.38,5.23,7.53,2.42,10.41,5.26,9.87,9.73M26.37,5.43c4.9,0,8.9,4.65,9.09,10.47H17.29c.18-5.82,4.18-10.47,9.08-10.47M51.74,17a1.09,1.09,0,0,0-1.08-1.1H38.88C38.59,8.21,33.1,2.08,26.37,2.08S14.16,8.21,13.87,15.9H2.07A1.09,1.09,0,0,0,1,17v.08H1L2.68,54.14c0,.11,0,.21,0,.32v.14h0a5,5,0,0,0,4.67,4.75H45a5.16,5.16,0,0,0,4.91-4.78h0v-.12c0-.07,0-.13,0-.2l1.83-37.21h0V17M176.47,41.15a5.6,5.6,0,0,1,5.44-3.92,6,6,0,0,1,5.54,3.92l.05.15H176.42l.05-.15ZM190,44.56h.08a1,1,0,0,0,.95-1v-.15a9.1,9.1,0,1,0-18.18,0,11.27,11.27,0,0,0,.06,1.16v.12a9.16,9.16,0,0,0,2.31,5h0a9.69,9.69,0,0,0,5.4,3h0l.14,0,.24,0a12.61,12.61,0,0,0,7.3-1.12,7.79,7.79,0,0,0,1.37-.84,3.57,3.57,0,0,0,.35-.28l.11-.1c.47-.48.5-.66.22-1.1s-.59-.91-.82-1.26l-.22-.32,0-.08h0c-.26-.32-.43-.35-.72-.1l-.15.13a8.11,8.11,0,0,1-8.87,1.26,6,6,0,0,1-3.27-4.15l0-.14Zm-35.14-3.41a5.6,5.6,0,0,1,5.45-3.92,6,6,0,0,1,5.53,3.92l.06.15H154.79Zm13.5,3.41h.09a1,1,0,0,0,1-1,.31.31,0,0,0,0-.09v-.06a9.1,9.1,0,1,0-18.18,0,9,9,0,0,0,.07,1.16v0l0,.1a9.15,9.15,0,0,0,2.3,5h0a9.7,9.7,0,0,0,5.39,3h0l.14,0,.24,0a12.63,12.63,0,0,0,7.3-1.12,8.61,8.61,0,0,0,1.37-.84,3.39,3.39,0,0,0,.34-.28l.12-.1c.47-.48.5-.66.21-1.1s-.58-.91-.82-1.26l-.21-.32-.06-.08h0c-.26-.32-.43-.35-.72-.1l-.15.13a8.47,8.47,0,0,1-7.46,1.78,8.39,8.39,0,0,1-1.41-.52,6,6,0,0,1-3.27-4.15l0-.14Zm-30,5.18a6.22,6.22,0,0,1-6.23-6v-.32a6.23,6.23,0,1,1,6.23,6.36m0-15.68a9.54,9.54,0,0,0-6,2.14l-.19.15V34.62c0-.46-.1-.56-.57-.56h-2.17c-.48,0-.57.09-.57.56V62.26c0,.45.1.57.57.57h2.17c.47,0,.57-.11.57-.57V50.73l.19.16a9.51,9.51,0,1,0,6-16.83M115.91,49.52a6.14,6.14,0,1,1,6.24-6.14,6.2,6.2,0,0,1-6.24,6.14m0-15.54a9.41,9.41,0,1,0,9.56,9.41A9.48,9.48,0,0,0,115.91,34m-21.32.21A9,9,0,0,0,89.25,36l-.19.14V23.26c0-.43-.14-.57-.56-.57H86.22c-.46,0-.57.11-.57.57V52.54c0,.44.12.57.57.57H88.5c.42,0,.56-.15.56-.57V43a5.53,5.53,0,0,1,11.06,0v9.54c0,.49.08.57.57.57H103c.48,0,.56-.09.56-.57V43a8.9,8.9,0,0,0-8.93-8.78M62.85,47.79h0l-.54.82c-.25.38-.22.55.17.88a17.52,17.52,0,0,0,2.88,1.9,16.85,16.85,0,0,0,7.1,1.69,12.18,12.18,0,0,0,5.2-1,8,8,0,0,0,4.82-6.58c.5-4.78-2.62-7.77-10.64-10.18h0c-3.73-1.21-5.49-2.81-5.49-5.05.11-2.47,2.4-4.32,5.49-4.43a12.31,12.31,0,0,1,6.86,2.06c.46.28.67.23,1-.17l.55-.79h0l.54-.79c.26-.49.22-.68-.25-1A16.8,16.8,0,0,0,78,23.87a16,16,0,0,0-6.3-1.17c-4.82.1-8.58,3.24-8.83,7.35-.16,3,1.35,5.36,4.5,7.12A47.71,47.71,0,0,0,73,39.3c4.28,1.25,6.52,3.56,6.06,6.29-.42,2.47-3,4.12-6.65,4.23a13.22,13.22,0,0,1-7.61-2.76l-.18-.13-.17-.13c-.47-.32-.75-.3-1,.13l-.56.86" transform="translate(-1 -2.08)" fill="#ee4d2d" fill-rule="evenodd"/></svg>